<svg xmlns="http://www.w3.org/2000/svg" version="1.1" xmlns:xlink="http://www.w3.org/1999/xlink" xmlns:svgjs="http://svgjs.dev/svgjs" width="1000" height="1000" viewBox="0 0 1000 1000"><rect width="1000" height="1000" fill="#000000"></rect><g transform="matrix(0.7,0,0,0.7,149.5757657239589,456.8524620393075)"><svg viewBox="0 0 396 49" data-background-color="#ffffff" preserveAspectRatio="xMidYMid meet" height="123" width="1000" xmlns="http://www.w3.org/2000/svg" xmlns:xlink="http://www.w3.org/1999/xlink"><g id="tight-bounds" transform="matrix(1,0,0,1,0.2399953904460972,0.0555094085241592)"><svg viewBox="0 0 395.52 48.88898118295169" height="48.88898118295169" width="395.52"><g><svg viewBox="0 0 459.9981939452732 56.858927609178366" height="48.88898118295169" width="395.52"><g><rect width="5.102086338516416" height="56.858927609178366" x="46.019860647289796" y="0" fill="#ffffff" opacity="1" stroke-width="0" stroke="transparent" fill-opacity="1" class="rect-o-0" data-fill-palette-color="primary" rx="1%" id="o-0" data-palette-color="#000000"></rect></g><g transform="matrix(1,0,0,1,64.47819394527326,0.14144011843078985)"><svg viewBox="0 0 395.52 56.576047372316786" height="56.576047372316786" width="395.52"><g id="textblocktransform"><svg viewBox="0 0 395.52 56.576047372316786" height="56.576047372316786" width="395.52" id="textblock"><g><svg viewBox="0 0 395.52 56.576047372316786" height="56.576047372316786" width="395.52"><g transform="matrix(1,0,0,1,0,0)"><svg width="395.52" viewBox="4.75 -38.25 270.17999267578125 38.650001525878906" height="56.576047372316786" data-palette-color="#000000"><path d="M4.75-36.8L15.9-36.8Q20.45-36.8 23.6-35.27 26.75-33.75 28.4-30.98 30.05-28.2 30.05-24.4L30.05-24.4Q30.05-22.15 29.38-19.88 28.7-17.6 27.23-15.75 25.75-13.9 23.28-12.78 20.8-11.65 17.2-11.65L17.2-11.65 12-11.65 12 0 4.75 0 4.75-36.8ZM12-18.7L17.15-18.7Q18.8-18.7 19.9-19.28 21-19.85 21.63-20.73 22.25-21.6 22.53-22.55 22.8-23.5 22.8-24.2L22.8-24.2Q22.8-24.75 22.63-25.68 22.45-26.6 21.9-27.55 21.35-28.5 20.23-29.15 19.1-29.8 17.2-29.8L17.2-29.8 12-29.8 12-18.7ZM36.55-36.8L47.7-36.8Q51.15-36.8 53.85-35.93 56.55-35.05 58.37-33.43 60.2-31.8 61.15-29.53 62.1-27.25 62.1-24.4L62.1-24.4Q62.1-22.15 61.42-19.9 60.75-17.65 59.22-15.8 57.7-13.95 55.2-12.83 52.7-11.7 49-11.7L49-11.7 43.8-11.7 43.8 0 36.55 0 36.55-36.8ZM43.8-18.7L48.95-18.7Q50.6-18.7 51.7-19.25 52.8-19.8 53.42-20.65 54.05-21.5 54.32-22.43 54.6-23.35 54.6-24.15L54.6-24.15Q54.6-24.75 54.42-25.68 54.25-26.6 53.7-27.55 53.15-28.5 52.02-29.15 50.9-29.8 49-29.8L49-29.8 43.8-29.8 43.8-18.7ZM47.1-14L55.75-14.2 64.85 0 56.4 0 47.1-14ZM67.34-18.35L67.34-18.35Q67.34-22.15 68.8-25.55 70.25-28.95 72.82-31.58 75.39-34.2 78.8-35.7 82.19-37.2 86.09-37.2L86.09-37.2Q89.94-37.2 93.34-35.7 96.75-34.2 99.37-31.58 102-28.95 103.47-25.55 104.94-22.15 104.94-18.35L104.94-18.35Q104.94-14.45 103.47-11.05 102-7.65 99.37-5.08 96.75-2.5 93.34-1.05 89.94 0.4 86.09 0.4L86.09 0.4Q82.19 0.4 78.8-1.05 75.39-2.5 72.82-5.08 70.25-7.65 68.8-11.05 67.34-14.45 67.34-18.35ZM74.84-18.35L74.84-18.35Q74.84-15.9 75.72-13.78 76.59-11.65 78.17-10.03 79.75-8.4 81.82-7.5 83.89-6.6 86.34-6.6L86.34-6.6Q88.69-6.6 90.72-7.5 92.75-8.4 94.25-10.03 95.75-11.65 96.59-13.78 97.44-15.9 97.44-18.35L97.44-18.35Q97.44-20.85 96.57-23 95.69-25.15 94.17-26.78 92.64-28.4 90.59-29.3 88.55-30.2 86.14-30.2L86.14-30.2Q83.75-30.2 81.69-29.3 79.64-28.4 78.09-26.78 76.55-25.15 75.69-23 74.84-20.85 74.84-18.35ZM112.19-36.8L123.34-36.8Q127.89-36.8 131.04-35.27 134.19-33.75 135.84-30.98 137.49-28.2 137.49-24.4L137.49-24.4Q137.49-22.15 136.82-19.88 136.14-17.6 134.67-15.75 133.19-13.9 130.72-12.78 128.24-11.65 124.64-11.65L124.64-11.65 119.44-11.65 119.44 0 112.19 0 112.19-36.8ZM119.44-18.7L124.59-18.7Q126.24-18.7 127.34-19.28 128.44-19.85 129.07-20.73 129.69-21.6 129.97-22.55 130.24-23.5 130.24-24.2L130.24-24.2Q130.24-24.75 130.07-25.68 129.89-26.6 129.34-27.55 128.79-28.5 127.67-29.15 126.54-29.8 124.64-29.8L124.64-29.8 119.44-29.8 119.44-18.7ZM156.79 0L143.99 0 143.99-36.8 154.99-36.8Q160.54-36.8 164.44-35.15 168.34-33.5 170.72-30.75 173.09-28 174.19-24.6 175.29-21.2 175.29-17.75L175.29-17.75Q175.29-13.65 173.81-10.38 172.34-7.1 169.79-4.78 167.24-2.45 163.89-1.23 160.54 0 156.79 0L156.79 0ZM151.24-29.85L151.24-7 155.54-7Q158.29-7 160.54-7.73 162.79-8.45 164.42-9.85 166.04-11.25 166.92-13.38 167.79-15.5 167.79-18.25L167.79-18.25Q167.79-21.85 166.62-24.13 165.44-26.4 163.72-27.65 161.99-28.9 160.19-29.38 158.39-29.85 157.14-29.85L157.14-29.85 151.24-29.85ZM183.04 0L175.89 0 192.49-38.25 192.89-38.25 209.49 0 201.09 0 190.49-26.9 195.74-30.5 183.04 0ZM184.99-7.2L187.24-13.3 198.29-13.3 200.84-7.2 184.99-7.2ZM237.24-33.45L234.49-27.9Q232.39-29.05 230.21-29.8 228.04-30.55 226.14-30.55L226.14-30.55Q223.79-30.55 222.44-29.6 221.09-28.65 221.09-26.75L221.09-26.75Q221.09-25.45 222.11-24.43 223.14-23.4 224.76-22.6 226.39-21.8 228.14-21.15L228.14-21.15Q229.74-20.55 231.31-19.73 232.89-18.9 234.14-17.68 235.39-16.45 236.14-14.63 236.89-12.8 236.89-10.15L236.89-10.15Q236.89-7.35 235.44-4.95 233.99-2.55 231.19-1.07 228.39 0.4 224.29 0.4L224.29 0.4Q222.19 0.4 220.01-0.03 217.84-0.45 215.74-1.33 213.64-2.2 211.69-3.55L211.69-3.55 214.89-9.2Q216.19-8.25 217.71-7.53 219.24-6.8 220.79-6.4 222.34-6 223.64-6L223.64-6Q224.94-6 226.26-6.38 227.59-6.75 228.46-7.65 229.34-8.55 229.34-10.15L229.34-10.15Q229.34-11.25 228.61-12.15 227.89-13.05 226.66-13.8 225.44-14.55 223.99-15.1L223.99-15.1Q222.29-15.75 220.49-16.6 218.69-17.45 217.11-18.68 215.54-19.9 214.56-21.73 213.59-23.55 213.59-26.2L213.59-26.2Q213.59-29.4 215.01-31.75 216.44-34.1 219.04-35.48 221.64-36.85 225.04-37L225.04-37Q229.49-37 232.26-35.95 235.04-34.9 237.24-33.45L237.24-33.45ZM267.68-36.8L274.93-36.8 274.93 0 267.68 0 267.68-14.95 251.23-14.95 251.23 0 243.98 0 243.98-36.8 251.23-36.8 251.23-21.95 267.68-21.95 267.68-36.8Z" opacity="1" transform="matrix(1,0,0,1,0,0)" fill="#ffffff" class="wordmark-text-0" data-fill-palette-color="primary" id="text-0"></path></svg></g></svg></g></svg></g></svg></g><g transform="matrix(1,0,0,1,0,0.14144011843078985)"><svg viewBox="0 0 32.66361368782274 56.576047372316786" height="56.576047372316786" width="32.66361368782274"><g><svg xmlns="http://www.w3.org/2000/svg" xmlns:xlink="http://www.w3.org/1999/xlink" version="1.1" x="0" y="0" viewBox="21.132999420166016 0 57.7339973449707 100" enable-background="new 0 0 100 100" xml:space="preserve" height="56.576047372316786" width="32.66361368782274" class="icon-icon-0" data-fill-palette-color="accent" id="icon-0"><path d="M50 0L21.133 16.667v66.666l10.602 6.121V77.627l6.576 3.797v11.827L50 100l12.268-7.083V81.09l6.576-3.797v11.828l10.023-5.788V16.667L50 0zM33.693 73.475l-6.576-3.796v-7.595l6.576 3.797V73.475zM33.693 57.641l-6.576-3.798v-7.594l6.576 3.797V57.641zM33.693 41.804l-6.576-3.796v-7.594l6.576 3.797V41.804zM44.51 79.794l-6.576-3.798v-7.594l6.576 3.797V79.794zM44.51 63.958l-6.576-3.796v-7.595l6.576 3.796V63.958zM44.51 48.123l-6.576-3.797v-7.594l6.576 3.798V48.123zM49.953 5.438L28.575 17.878l-2.098-1.211L50 3.086l23.522 13.581-1.975 1.14L49.953 5.438zM62.932 75.996l-6.579 3.798v-7.595l6.579-3.797V75.996zM62.932 60.162l-6.579 3.796v-7.595l6.579-3.796V60.162zM62.932 44.325l-6.579 3.797v-7.594l6.579-3.798V44.325zM73.749 69.679l-6.576 3.796v-7.594l6.576-3.797V69.679zM73.749 53.843l-6.576 3.798v-7.595l6.576-3.797V53.843zM73.749 38.007l-6.576 3.796V34.21l6.576-3.797V38.007z" fill="#ffffff" data-fill-palette-color="accent"></path></svg></g></svg></g></svg></g><defs></defs></svg><rect width="395.52" height="48.88898118295169" fill="none" stroke="none" visibility="hidden"></rect></g></svg></g></svg>